<?xml version="1.0" encoding="utf-8"?>
<!-- Generator: Adobe Illustrator 16.0.0, SVG Export Plug-In . SVG Version: 6.00 Build 0)  -->
<!DOCTYPE svg PUBLIC "-//W3C//DTD SVG 1.1//EN" "http://www.w3.org/Graphics/SVG/1.1/DTD/svg11.dtd">
<svg version="1.1" id="Layer_1" xmlns:sketch="http://www.bohemiancoding.com/sketch/ns"
	 xmlns="http://www.w3.org/2000/svg" xmlns:xlink="http://www.w3.org/1999/xlink" x="0px" y="0px" width="36.736px"
	 height="33.63px" viewBox="0.876 0.37 36.736 33.63" enable-background="new 0.876 0.37 36.736 33.63" xml:space="preserve">
<title>Fill 1</title>
<desc>Created with Sketch.</desc>
<path d="M37.474,15.709c-0.112-0.964-0.292-1.934-0.716-2.804c-0.421-0.874-1.108-1.646-2.005-2.003
	c-0.895-0.358-2.004-0.235-2.699,0.436c-0.147,0.143-0.277,0.318-0.344,0.51c-0.472-0.367-1-0.662-1.551-0.866
	c-1.871-0.695-3.938-0.554-5.92-0.341c-1.985,0.213-4.116,0.831-6.061,0.381c-1.721-0.398-3.939-2.847-4.671-3.84
	c-1.361-1.853-1.933-3.026-3.912-3.977C9.15,2.989,8.671,2.63,8.244,2.378C7.527,1.957,7.019,1.197,6.903,0.37
	C6.691,1.001,6.686,1.699,6.879,2.335C6.53,1.839,6.181,1.344,5.832,0.847C6.224,1.65,5.848,2.652,5.211,3.274
	C4.572,3.895,3.723,4.235,2.923,4.621c-0.8,0.384-1.612,0.865-2.047,1.644c0.507,0.191,0.321,0.982,0.598,1.45
	c0.278,0.473,0.979,0.489,1.466,0.244C3.428,7.713,3.172,7.007,4.267,7c2.199,1.196,2.389,0.191,3.665,0.007
	c0.966,1.468,1.714,4.835,1.667,6.596c-0.025,0.933-0.142,2.361,0.042,3.277c0.183,0.931,0.907,1.205,1.183,2.117
	c0.634,2.104,0.414,4.364,0.583,6.561c0.084,1.076,0.263,2.166,0.088,3.234c-0.21,1.283-0.951,2.473-2.008,3.223
	c0.407,0.416,1.14,0.322,1.575-0.064c0.106-0.096,0.197-0.201,0.278-0.316c-0.041,0.107-0.081,0.216-0.113,0.322
	c0.371,0.15,0.621,0.164,0.917-0.106c0.684-1.259,1.686-1.913,1.604-3.662c-0.17-1.222,0.172-2.672,0.244-3.905
	c0.141-2.423,0.374-4.195,0.797-6.421c0.413,0.487,0.835,0.981,1.371,1.327c0.47,0.301,1.008,0.475,1.542,0.639
	c3.166,0.961,6.697,1.58,9.686,0.154c0.019,1.566,1.228,2.837,1.758,4.311c0.606,1.681,0.301,3.539-0.013,5.301
	c-0.087,0.479-0.177,0.974-0.439,1.384c-0.496,0.771-1.596,1.284-1.502,2.198c0.34,0.005,0.68,0.007,1.021,0.011
	c1.04-1.218,2.121-2.522,2.377-4.106c0.226-1.402-0.191-2.99,0.619-4.149c1.92,1.683,3.356,4.37,2.482,6.776
	C33.44,32.387,32.786,33.234,33.07,34c0.397-0.186,0.685-0.144,0.837-0.557c0.224-0.609,0.735-1.191,0.937-1.554
	c0.47-0.841,0.248-1.912,0.089-2.86c-0.244-1.441-0.771-2.82-1.366-4.154c-0.686-1.525-1.488-3.115-1.302-4.779
	c0.182-1.614,1.282-3.035,1.334-4.658c0.032-1.053-0.397-2.031-1.083-2.828c0.521-0.164,1.057,0.033,1.415,0.382
	c0.358,0.349,0.565,0.828,0.709,1.308c0.585,1.978,0.204,4.097-0.178,6.125c0.456,0.705,1.098,1.291,1.839,1.679
	c0.164,0.087,0.349,0.166,0.529,0.127c0.34-0.069,0.467-0.483,0.523-0.829C37.655,19.521,37.69,17.6,37.474,15.709z"/>
</svg>
